<?xml version="1.0" encoding="UTF-8"?><svg xmlns="http://www.w3.org/2000/svg" viewBox="0 0 24 24"><defs><style>.d{fill:#1b3a52;}</style></defs><g id="a"/><g id="b"><g id="c"><path class="d" d="M13.71,1.71c0-.95,.77-1.71,1.71-1.71h6.81c.28,0,.5,.05,.7,.13,.16,.08,.39,.21,.56,.37,0,0,0,0,0,0,.33,.33,.45,.77,.5,1.2h0v6.86c0,.95-.77,1.71-1.71,1.71s-1.71-.77-1.71-1.71v-2.72L11.5,14.93c-.67,.67-1.75,.67-2.42,0s-.67-1.75,0-2.42L18.14,3.43h-2.72c-.95,0-1.71-.77-1.71-1.71h0ZM0,5.14C0,3.25,1.53,1.71,3.43,1.71h5.14c.95,0,1.71,.77,1.71,1.71s-.77,1.71-1.71,1.71H3.43v15.43h15.43v-5.14c0-.95,.77-1.71,1.71-1.71s1.71,.77,1.71,1.71v5.14c0,1.89-1.54,3.43-3.43,3.43H3.43c-1.89,0-3.43-1.54-3.43-3.43V5.14Z"/></g></g></svg>