<?xml version="1.0" encoding="UTF-8"?><svg xmlns="http://www.w3.org/2000/svg" viewBox="0 0 32 22"><defs><style>.d{fill:#9ebacc;}.e{fill:#1b3a52;}</style></defs><g id="a"/><g id="b"><g id="c"><g><path class="e" d="M13.75,11c0-1.22,1-2.2,2.24-2.2s2.24,.99,2.24,2.2c0,1-.69,1.88-1.68,2.13v6.12c0,.3-.25,.55-.56,.55s-.56-.25-.56-.55v-6.12c-.99-.25-1.68-1.13-1.68-2.13Z"/><g><path class="e" d="M19.56,7.12c.22-.21,.57-.21,.79,0h0c2.18,2.14,2.18,5.61,0,7.76h0c-.22,.22-.57,.22-.79,0s-.22-.56,0-.78c1.74-1.71,1.74-4.49,0-6.2-.22-.21-.22-.56,0-.78h0Z"/><path class="e" d="M21.93,4.8c.22-.21,.57-.21,.79,0,3.48,3.43,3.48,8.98,0,12.41-.22,.21-.57,.2-.79-.01-.21-.21-.21-.55,0-.76,3.05-3,3.05-7.86,0-10.86h0c-.22-.21-.22-.56,0-.78h0Z"/><path class="d" d="M26,3.62h0c-.11-.16-.23-.31-.36-.46-.05-.06-.11-.13-.16-.19-.14-.16-.28-.32-.44-.48-.05-.05-.11-.08-.17-.11h-.03c-.06-.04-.12-.05-.19-.05h0c-.07,0-.13,.01-.19,.04-.02,0-.03,.02-.05,.02-.04,.02-.09,.05-.12,.08,0,0-.02,0-.03,.02h0c-.2,.19-.21,.49-.05,.7,.02,.02,.03,.05,.05,.07h0c.18,.18,.35,.37,.51,.56h0c1.65,2.05,5.53,8.86-.48,14.91-.04,.05-.07,.1-.09,.15,0,.01-.02,.02-.02,.03-.01,.03-.01,.07-.02,.1,0,.05-.02,.09-.01,.14h0c.01,.14,.06,.26,.15,.35h0c.22,.21,.57,.21,.79,0,.36-.35,.67-.73,.96-1.13h0c4.63-5.96,2.08-11.89-.05-14.76Z"/><path class="d" d="M28.42,1.29h0c-.05-.07-.11-.14-.16-.21-.24-.32-.5-.63-.8-.93h0s-.06-.04-.08-.06c-.04-.02-.07-.05-.11-.06-.06-.02-.12-.03-.19-.04,0,0-.01,0-.02,0-.05,0-.11,.01-.16,.03-.03,0-.05,.02-.07,.03-.05,.03-.1,.05-.15,.1h0c-.15,.15-.19,.36-.13,.55,0,.02,.02,.05,.03,.07,.04,.08,.09,.14,.09,.14,4.68,4.78,6.28,13.68,.03,20.14h-.01v.02c-.21,.21-.21,.56,0,.77h0s.05,.03,.07,.04c.22,.16,.52,.15,.72-.04h0c.36-.36,.67-.74,.95-1.13v-.02c6.25-8,3.02-15.53,0-19.4Z"/></g><g><path class="e" d="M12.44,7.12c.22,.21,.22,.56,0,.78-1.74,1.71-1.74,4.49,0,6.2,.22,.21,.22,.56,0,.78s-.57,.21-.79,0h0c-2.18-2.14-2.17-5.61,0-7.76h0c.22-.21,.57-.21,.79,0h0Z"/><path class="e" d="M10.07,4.8c.22,.21,.22,.56,0,.78h0c-3.05,3-3.05,7.86,0,10.86,.21,.21,.21,.55,0,.76-.21,.22-.57,.22-.79,.01-3.48-3.43-3.48-8.98,0-12.41,.22-.21,.57-.21,.79,0h0Z"/><path class="d" d="M6,3.62h0c.11-.16,.23-.31,.36-.46,.05-.06,.11-.13,.16-.19,.14-.16,.28-.32,.44-.48,.05-.05,.11-.08,.17-.11h.03c.06-.04,.12-.05,.19-.05h0c.07,0,.13,.01,.19,.04,.02,0,.03,.02,.05,.02,.04,.02,.09,.05,.12,.08,0,0,.02,0,.03,.02h0c.2,.19,.21,.49,.05,.7-.02,.02-.03,.05-.05,.07h0c-.18,.18-.35,.37-.51,.56h0c-1.65,2.05-5.53,8.86,.48,14.91,.04,.05,.07,.1,.09,.15,0,.01,.02,.02,.02,.03,.01,.03,.01,.07,.02,.1,0,.05,.02,.09,.01,.14h0c-.01,.14-.06,.26-.15,.35h0c-.22,.21-.57,.21-.79,0-.36-.35-.67-.73-.96-1.13h0c-4.63-5.96-2.08-11.89,.05-14.76Z"/><path class="d" d="M3.58,1.29h0c.05-.07,.11-.14,.16-.21,.24-.32,.5-.63,.8-.93h0s.06-.04,.08-.06c.04-.02,.07-.05,.11-.06,.06-.02,.12-.03,.19-.04,0,0,.01,0,.02,0,.05,0,.11,.01,.16,.03,.03,0,.05,.02,.07,.03,.05,.03,.1,.05,.15,.1h0c.15,.15,.19,.36,.13,.55,0,.02-.02,.05-.03,.07-.04,.08-.09,.14-.09,.14-4.68,4.78-6.28,13.68-.03,20.14h.01v.02c.21,.21,.21,.56,0,.77h0s-.05,.03-.07,.04c-.22,.16-.52,.15-.72-.04h0c-.36-.36-.67-.74-.95-1.13v-.02c-6.25-8-3.02-15.53,0-19.4Z"/></g></g></g></g></svg>