<?xml version="1.0" encoding="UTF-8"?><svg xmlns="http://www.w3.org/2000/svg" viewBox="0 0 32 22"><defs><style>.d{fill:#9ebacc;}</style></defs><g id="a"/><g id="b"><g id="c"><g><path class="d" d="M20.42,12.85l.84,.78c1.21-2.05,.91-4.7-.9-6.45h0c-.22-.21-.57-.21-.79,0h0c-.22,.21-.22,.55,0,.76,1.38,1.33,1.66,3.31,.86,4.91Z"/><path class="d" d="M21.93,5.66c2.68,2.58,3,6.57,.97,9.49l.81,.75c2.44-3.35,2.11-8-1-11-.22-.21-.57-.21-.79,0h0c-.22,.21-.22,.55,0,.76h0Z"/><path class="d" d="M24.26,3.4h0c.18,.18,.35,.36,.51,.55h0c1.55,1.88,5.04,7.84,.56,13.45l.78,.72c4.55-5.8,2.02-11.57-.11-14.37h0c-.11-.15-.23-.3-.36-.45-.05-.06-.11-.13-.16-.19-.14-.16-.28-.32-.44-.47-.05-.05-.11-.08-.17-.11h-.03c-.06-.04-.12-.05-.19-.05h0c-.07,0-.13,.01-.19,.04-.02,0-.03,.02-.05,.02-.04,.02-.09,.05-.12,.08,0,0-.02,0-.03,.02h0c-.2,.19-.21,.48-.05,.68,.02,.02,.03,.05,.05,.07Z"/><path class="d" d="M27.83,21.21l-.8-.74h0l-1.61-1.49h0l-.81-.75h0l-1.6-1.47h0l-.8-.75h0l-1.61-1.49h0l-.81-.75h0l-1.86-1.72h0l-3.13-2.9h0L5.39,.44v-.02s-.05-.04-.07-.06h0s-.04-.03-.07-.05h-.02l-.32-.31-.33,.32s-.03,.02-.05,.03h0c-.09,.09-.18,.18-.27,.28l-.14,.14h0c-.14,.17-.27,.33-.4,.49-.05,.07-.11,.13-.16,.2h0c-3.02,3.8-6.25,11.17,0,19v.02c.28,.38,.59,.75,.95,1.1h0c.2,.2,.5,.21,.72,.05,.02-.02,.05-.02,.07-.04h0c.22-.21,.22-.54,0-.75h0v-.02C-.76,14.67,.58,6.29,4.94,1.52l1.64,1.52s-.04,.05-.06,.07c-.05,.06-.11,.13-.16,.19-.12,.15-.24,.3-.36,.45h0c-2.14,2.81-4.68,8.61-.05,14.44h0c.28,.4,.6,.77,.96,1.11,.22,.21,.57,.21,.79,0h0c.1-.09,.14-.21,.15-.33h0c0-.06,0-.1-.01-.15,0-.03,0-.07-.02-.1,0-.01-.01-.02-.02-.03-.02-.05-.05-.1-.09-.15-6.01-5.92-2.13-12.58-.48-14.59h0c.05-.06,.1-.11,.15-.17l1.58,1.46c-3.15,3.37-3.04,8.57,.33,11.81,.22,.21,.57,.2,.79-.01,.21-.21,.21-.54,0-.75-2.94-2.83-3.04-7.36-.31-10.31l1.61,1.49c-1.89,2.11-1.79,5.3,.28,7.3h0c.22,.21,.57,.21,.79,0,.22-.21,.22-.55,0-.76-1.65-1.59-1.73-4.1-.27-5.79l1.86,1.72c-.18,.31-.28,.66-.28,1.04,0,.98,.69,1.84,1.68,2.09v5.99c0,.3,.25,.54,.56,.54s.56-.24,.56-.54v-5.99c.21-.05,.41-.14,.59-.24l9.92,9.18,.79-.77-.02-.02h0Z"/><path class="d" d="M28.42,1.47h0c-.05-.07-.11-.14-.16-.2-.24-.31-.5-.62-.8-.91h0s-.06-.04-.08-.06c-.04-.02-.07-.05-.11-.06-.06-.02-.12-.03-.19-.03,0,0-.01,0-.02,0-.05,0-.11,.01-.16,.03-.03,0-.05,.02-.07,.03-.05,.03-.1,.05-.15,.09h0c-.15,.15-.19,.36-.13,.54,0,.02,.02,.05,.03,.07,.04,.08,.09,.14,.09,.14,4.39,4.4,6.07,12.34,1.09,18.53l.77,.71c6.12-7.78,2.91-15.1-.1-18.88Z"/></g></g></g></svg>